<?xml version="1.0" encoding="UTF-8"?>
<!DOCTYPE svg PUBLIC "-//W3C//DTD SVG 1.1//EN" "http://www.w3.org/Graphics/SVG/1.1/DTD/svg11.dtd">
<svg xmlns="http://www.w3.org/2000/svg" version="1.1" width="500px" height="500px" style="shape-rendering:geometricPrecision; text-rendering:geometricPrecision; image-rendering:optimizeQuality; fill-rule:evenodd; clip-rule:evenodd" xmlns:xlink="http://www.w3.org/1999/xlink">
<g><path style="opacity:0.995" fill="#e4b755" d="M 425.5,269.5 C 423.5,269.5 421.5,269.5 419.5,269.5C 417.957,268.264 416.957,266.598 416.5,264.5C 426.052,243.058 438.385,223.391 453.5,205.5C 458.145,204.035 462.645,204.368 467,206.5C 469,208.833 469,211.167 467,213.5C 455.272,230.898 443.939,248.565 433,266.5C 431.005,268.747 428.505,269.747 425.5,269.5 Z M 456.5,209.5 C 458.857,209.337 461.19,209.503 463.5,210C 451.606,227.564 440.106,245.398 429,263.5C 426.772,265.113 424.272,265.78 421.5,265.5C 430.723,245.283 442.39,226.616 456.5,209.5 Z"/></g>
<g><path style="opacity:0.994" fill="#e3b44e" d="M 361.5,240.5 C 361.281,241.675 361.614,242.675 362.5,243.5C 363.107,243.376 363.44,243.043 363.5,242.5C 365.579,240.127 368.246,238.794 371.5,238.5C 370.315,227.861 374.981,222.361 385.5,222C 389.557,223.947 391.057,227.114 390,231.5C 388.904,236.765 385.737,239.765 380.5,240.5C 379.325,240.281 378.325,240.614 377.5,241.5C 377.624,242.107 377.957,242.44 378.5,242.5C 379.41,244.019 380.243,245.685 381,247.5C 389.703,239.529 399.536,237.362 410.5,241C 413.853,250.447 410.52,256.281 400.5,258.5C 401.833,260.5 401.833,262.5 400.5,264.5C 400.667,264.833 400.833,265.167 401,265.5C 404.144,262.231 407.478,261.898 411,264.5C 411.49,265.793 411.657,267.127 411.5,268.5C 411.34,270.199 411.506,271.866 412,273.5C 412.717,272.956 413.217,272.289 413.5,271.5C 415.379,270.659 417.379,270.325 419.5,270.5C 420.391,271.11 421.391,271.443 422.5,271.5C 423.75,271.577 424.583,272.244 425,273.5C 426.017,286.788 420.35,291.455 408,287.5C 406.956,285.285 406.29,282.952 406,280.5C 395.87,288.998 384.704,290.665 372.5,285.5C 365.863,289.112 359.196,289.279 352.5,286C 347.871,281.711 346.371,276.544 348,270.5C 341.932,278.241 334.432,284.075 325.5,288C 321.018,289.011 317.184,287.844 314,284.5C 312.337,280.216 312.004,275.883 313,271.5C 307.701,278.127 301.201,283.294 293.5,287C 284.385,289.924 278.052,287.09 274.5,278.5C 269.349,283.408 263.349,286.741 256.5,288.5C 251.535,288.369 248.035,286.036 246,281.5C 245.439,276.565 246.106,271.898 248,267.5C 242.223,275.282 235.223,281.615 227,286.5C 219.684,285.492 216.351,281.159 217,273.5C 212.988,278.86 209.488,284.526 206.5,290.5C 205.957,290.56 205.624,290.893 205.5,291.5C 283.497,292.5 361.497,292.833 439.5,292.5C 441.256,293.552 441.923,295.219 441.5,297.5C 356.499,297.333 271.499,297.5 186.5,298C 181.456,303.376 176.789,309.042 172.5,315C 168.961,316.504 165.295,316.837 161.5,316C 159.667,315.5 158.5,314.333 158,312.5C 157.292,307.371 157.792,302.371 159.5,297.5C 125.498,297.667 91.4984,297.5 57.5,297C 56.1398,295.062 56.4732,293.396 58.5,292C 94.1713,291.833 129.838,291.333 165.5,290.5C 165.709,289.914 166.043,289.414 166.5,289C 164.129,288.265 161.795,287.432 159.5,286.5C 148.7,290.801 141.7,287.468 138.5,276.5C 139.485,274.902 139.651,273.235 139,271.5C 135.414,276.84 131.248,281.673 126.5,286C 121.838,287.337 118.171,286.17 115.5,282.5C 115.739,280.533 115.406,278.699 114.5,277C 118.11,273.708 120.777,269.208 122.5,263.5C 123.5,263.167 124.167,262.5 124.5,261.5C 124.5,260.833 124.5,260.167 124.5,259.5C 125.338,259.158 125.672,258.492 125.5,257.5C 129.225,252.403 132.725,247.07 136,241.5C 140.101,238.709 144.601,237.875 149.5,239C 150.126,239.75 150.626,240.584 151,241.5C 161.445,235.299 167.778,237.965 170,249.5C 171.123,246.751 172.623,244.251 174.5,242C 180.907,239.204 184.907,241.204 186.5,248C 185.226,251.139 184.392,254.306 184,257.5C 187.955,252.422 191.789,247.256 195.5,242C 199.094,240.259 202.761,240.092 206.5,241.5C 208.166,242.992 209.166,244.825 209.5,247C 206.808,252.541 204.308,258.041 202,263.5C 212.903,247.928 224.569,232.928 237,218.5C 241.821,213.504 247.321,209.504 253.5,206.5C 256.002,206.621 258.668,206.788 261.5,207C 266.223,208.043 268.056,210.876 267,215.5C 264.548,220.068 262.382,224.735 260.5,229.5C 259.833,229.5 259.5,229.833 259.5,230.5C 258.167,230.833 258.167,231.167 259.5,231.5C 265.776,226.893 271.443,221.559 276.5,215.5C 283.045,205.731 291.712,203.231 302.5,208C 303.87,209.441 304.87,211.108 305.5,213C 296.092,227.14 286.425,241.14 276.5,255C 277.872,255.402 279.205,255.902 280.5,256.5C 286.318,248.175 293.985,242.342 303.5,239C 310.627,238.899 316.96,241.066 322.5,245.5C 325.783,242.275 329.616,239.941 334,238.5C 338.596,239.261 341.429,241.928 342.5,246.5C 338.01,257.228 338.844,257.895 345,248.5C 343.276,237.895 347.776,233.729 358.5,236C 360.376,236.918 361.376,238.418 361.5,240.5 Z M 276.5,269.5 C 273.833,271.5 271.5,273.833 269.5,276.5C 265.587,279.623 261.253,281.956 256.5,283.5C 253.176,283.017 250.842,281.184 249.5,278C 256.503,264.178 264.503,251.012 273.5,238.5C 275.69,235.312 278.024,232.145 280.5,229C 276.857,230.455 273.857,232.955 271.5,236.5C 269.413,237.585 268.08,239.251 267.5,241.5C 260.5,247.833 253.833,254.5 247.5,261.5C 245.413,262.585 244.08,264.251 243.5,266.5C 238.336,271.496 233.003,276.329 227.5,281C 224.716,281.417 222.716,280.25 221.5,277.5C 227.588,264.325 233.922,251.325 240.5,238.5C 242.637,235.507 244.637,232.34 246.5,229C 243.157,229.835 240.823,232.001 239.5,235.5C 224.22,252.469 211.22,271.135 200.5,291.5C 197.658,292.733 194.992,292.4 192.5,290.5C 192.517,288.435 192.85,286.435 193.5,284.5C 190.236,286.094 187.569,288.427 185.5,291.5C 183.167,293.167 181.167,295.167 179.5,297.5C 178.094,297.973 177.427,298.973 177.5,300.5C 175.221,305.947 171.387,309.947 166,312.5C 163.833,311.667 162.333,310.167 161.5,308C 164.645,299.175 169.812,291.675 177,285.5C 178.122,283.593 178.955,281.593 179.5,279.5C 180.933,277.481 182.267,275.314 183.5,273C 180.195,274.114 177.528,276.281 175.5,279.5C 172.89,281.637 169.89,282.97 166.5,283.5C 163.699,283.536 161.865,282.203 161,279.5C 155.867,284.286 150.533,284.619 145,280.5C 143.418,274.519 144.418,268.853 148,263.5C 150.75,259.668 153.25,255.668 155.5,251.5C 155.167,251.167 154.833,250.833 154.5,250.5C 143.273,259.226 133.607,269.392 125.5,281C 119.88,282.386 118.38,280.552 121,275.5C 126.585,266.665 131.919,257.665 137,248.5C 138.059,246.341 139.559,244.674 141.5,243.5C 143.781,243.077 145.448,243.744 146.5,245.5C 146.5,245.833 146.5,246.167 146.5,246.5C 144.399,249.179 142.399,252.012 140.5,255C 143.805,253.886 146.472,251.719 148.5,248.5C 152.812,244.676 157.812,243.176 163.5,244C 164.83,247.368 164.33,250.535 162,253.5C 156.813,259.871 152.646,266.871 149.5,274.5C 149.962,276.291 151.129,277.291 153,277.5C 157.1,276.783 160.433,274.783 163,271.5C 167.96,263.081 172.793,254.581 177.5,246C 181.088,245.389 182.254,246.889 181,250.5C 176.435,258.464 172.268,266.63 168.5,275C 169,275.167 169.5,275.333 170,275.5C 177.201,271.308 183.534,265.975 189,259.5C 192.65,254.187 196.65,249.187 201,244.5C 204.566,245.619 205.233,247.619 203,250.5C 196.636,260.564 190.803,270.897 185.5,281.5C 183.901,282.799 183.401,284.465 184,286.5C 185.045,285.627 185.878,284.627 186.5,283.5C 193.926,278.34 200.76,272.34 207,265.5C 218.844,247.997 232.011,231.497 246.5,216C 248.699,214.303 251.032,212.803 253.5,211.5C 256.053,211.945 258.72,211.945 261.5,211.5C 262.11,212.391 262.443,213.391 262.5,214.5C 255.233,227.368 248.233,240.368 241.5,253.5C 238.918,255.997 237.418,258.997 237,262.5C 239.372,260.297 241.539,257.963 243.5,255.5C 256.269,240.897 269.935,227.064 284.5,214C 289.503,209.979 294.837,209.646 300.5,213C 285.598,232.133 271.931,252.133 259.5,273C 261.289,273.52 262.956,273.187 264.5,272C 268.967,268.535 273.133,264.702 277,260.5C 278.481,263.815 278.314,266.815 276.5,269.5 Z M 385.5,231.5 C 383.5,232.833 381.833,234.5 380.5,236.5C 378.284,236.725 376.617,235.892 375.5,234C 376.68,230.154 379.18,227.654 383,226.5C 385.157,227.385 385.99,229.052 385.5,231.5 Z M 352.5,239.5 C 354.39,239.297 355.89,239.963 357,241.5C 357.667,243.833 357.667,246.167 357,248.5C 349.593,262.904 339.093,274.404 325.5,283C 318.495,284.324 315.995,281.49 318,274.5C 319.95,268.598 322.45,262.932 325.5,257.5C 324.726,256.289 323.893,256.289 323,257.5C 322.167,256.667 321.333,255.833 320.5,255C 324.44,250.222 329.106,246.388 334.5,243.5C 336.167,243.833 337.167,244.833 337.5,246.5C 333.609,255.283 329.442,263.95 325,272.5C 324.219,273.944 324.386,275.277 325.5,276.5C 339.779,267.455 348.779,255.121 352.5,239.5 Z M 386.5,257.5 C 385.596,258.209 385.263,259.209 385.5,260.5C 387.099,260.768 388.432,260.434 389.5,259.5C 392.59,257.546 394.923,258.213 396.5,261.5C 391.285,264.695 386.118,268.028 381,271.5C 380.462,277.519 383.295,279.686 389.5,278C 395.916,275.368 401.916,272.201 407.5,268.5C 408.178,272.273 406.844,275.106 403.5,277C 396.429,282.69 388.429,284.69 379.5,283C 376.898,282.117 374.731,280.617 373,278.5C 366.507,284.568 359.841,284.901 353,279.5C 352.333,277.5 352.333,275.5 353,273.5C 355.745,267.675 358.745,262.008 362,256.5C 362.651,254.765 362.485,253.098 361.5,251.5C 364.239,247.593 367.739,244.593 372,242.5C 373.697,243.364 374.863,244.697 375.5,246.5C 370.866,254.963 366.033,263.296 361,271.5C 360.505,273.473 360.338,275.473 360.5,277.5C 363.794,277.741 366.794,276.908 369.5,275C 373.001,270.489 377.334,267.156 382.5,265C 381.584,264.626 380.75,264.126 380,263.5C 378.752,257.16 380.919,252.327 386.5,249C 392.569,244.816 399.235,243.149 406.5,244C 407.838,250.184 405.171,253.351 398.5,253.5C 398.5,252.5 398.5,251.5 398.5,250.5C 393.55,251.305 389.55,253.638 386.5,257.5 Z M 304.5,243.5 C 308.457,243.268 312.124,244.101 315.5,246C 316.872,247.242 317.872,248.742 318.5,250.5C 314.665,262.009 307.998,271.509 298.5,279C 293.569,282.77 288.235,283.77 282.5,282C 280.147,279.867 279.147,277.2 279.5,274C 282.536,259.466 290.87,249.299 304.5,243.5 Z M 303.5,256.5 C 300.635,261.874 296.802,266.541 292,270.5C 293.734,264.252 297.567,259.585 303.5,256.5 Z M 373.5,259.5 C 374.434,260.568 374.768,261.901 374.5,263.5C 373.205,264.488 371.872,265.488 370.5,266.5C 371.227,264.046 372.227,261.713 373.5,259.5 Z M 396.5,268.5 C 394.003,271.082 391.003,272.582 387.5,273C 390.243,270.962 393.243,269.462 396.5,268.5 Z M 415.5,275.5 C 421.961,275.089 423.128,277.422 419,282.5C 417.247,283.627 415.413,284.627 413.5,285.5C 412.119,285 411.453,284 411.5,282.5C 412.071,279.687 413.404,277.354 415.5,275.5 Z"/></g>
<g><path style="opacity:0.995" fill="#e4b653" d="M 125.5,257.5 C 124.662,257.842 124.328,258.508 124.5,259.5C 123.662,259.842 123.328,260.508 123.5,261.5C 122.662,261.842 122.328,262.508 122.5,263.5C 120.777,269.208 118.11,273.708 114.5,277C 115.406,278.699 115.739,280.533 115.5,282.5C 114.778,282.082 114.278,281.416 114,280.5C 109.806,288.515 103.306,291.181 94.5,288.5C 93.3526,286.235 93.1859,283.902 94,281.5C 96.9774,275.712 99.8108,269.879 102.5,264C 100.202,264.088 97.7018,263.921 95,263.5C 93.2358,263.544 91.5691,263.878 90,264.5C 84.9568,272.087 79.7901,279.587 74.5,287C 66.0393,289.543 61.8726,286.376 62,277.5C 63.6394,272.888 65.8061,268.554 68.5,264.5C 66.8068,263.772 65.3068,262.772 64,261.5C 62.0776,255.617 63.9109,251.451 69.5,249C 73.7727,247.97 78.106,247.303 82.5,247C 85.3714,244.297 88.0381,241.464 90.5,238.5C 96.1082,234.561 101.108,229.894 105.5,224.5C 113.017,215.646 122.35,209.646 133.5,206.5C 138.761,206.793 142.094,209.46 143.5,214.5C 137.884,229.02 131.884,243.353 125.5,257.5 Z M 77.5,260.5 C 78.0431,260.44 78.3764,260.107 78.5,259.5C 75.3553,258.197 72.3553,258.197 69.5,259.5C 68.1134,257.511 68.4468,255.678 70.5,254C 75.5,253 80.5,252 85.5,251C 96.9462,237.217 109.946,225.217 124.5,215C 126.624,213.418 128.79,213.251 131,214.5C 132.811,210.87 135.145,210.536 138,213.5C 138.667,214.5 138.667,215.5 138,216.5C 128.688,239.289 118.188,261.455 106.5,283C 104.02,283.96 101.52,284.793 99,285.5C 101.591,276.926 105.091,268.593 109.5,260.5C 102.524,259.335 95.5236,258.835 88.5,259C 82.6109,266.557 77.1109,274.39 72,282.5C 67.8143,283.65 66.1476,281.983 67,277.5C 70.0097,271.47 73.5097,265.804 77.5,260.5 Z M 110.5,247.5 C 108.585,247.784 106.919,247.451 105.5,246.5C 108.157,243.343 110.99,240.343 114,237.5C 113.171,240.852 112.004,244.185 110.5,247.5 Z"/></g>
<g><path style="opacity:0.188" fill="#f7e8c8" d="M 261.5,211.5 C 263.552,212.053 263.885,213.053 262.5,214.5C 262.443,213.391 262.11,212.391 261.5,211.5 Z"/></g>
<g><path style="opacity:0.808" fill="#efd190" d="M 125.5,225.5 C 125.631,224.761 125.464,224.094 125,223.5C 124.184,224.823 123.017,225.489 121.5,225.5C 122.976,222.501 125.309,221.001 128.5,221C 127.601,222.652 126.601,224.152 125.5,225.5 Z"/></g>
<g><path style="opacity:0.999" fill="#e2b34b" d="M 125.5,225.5 C 122.059,234.384 118.059,243.051 113.5,251.5C 107.11,252.871 100.776,252.704 94.5,251C 96.3702,248.96 98.3702,247.127 100.5,245.5C 101.906,245.027 102.573,244.027 102.5,242.5C 106.436,240.234 109.769,237.234 112.5,233.5C 114.88,230.119 117.88,227.453 121.5,225.5C 123.017,225.489 124.184,224.823 125,223.5C 125.464,224.094 125.631,224.761 125.5,225.5 Z M 110.5,247.5 C 108.585,247.784 106.919,247.451 105.5,246.5C 108.157,243.343 110.99,240.343 114,237.5C 113.171,240.852 112.004,244.185 110.5,247.5 Z"/></g>
<g><path style="opacity:0.796" fill="#eecc84" d="M 276.5,215.5 C 271.443,221.559 265.776,226.893 259.5,231.5C 259.5,231.167 259.5,230.833 259.5,230.5C 260.167,230.5 260.5,230.167 260.5,229.5C 265.557,224.438 270.89,219.772 276.5,215.5 Z"/></g>
<g><path style="opacity:0.804" fill="#eecc84" d="M 105.5,224.5 C 101.108,229.894 96.1082,234.561 90.5,238.5C 94.8918,233.106 99.8918,228.439 105.5,224.5 Z"/></g>
<g><path style="opacity:0.824" fill="#f0d191" d="M 385.5,231.5 C 384.833,234.167 383.167,235.833 380.5,236.5C 381.833,234.5 383.5,232.833 385.5,231.5 Z"/></g>
<g><path style="opacity:0.886" fill="#f2d79e" d="M 273.5,238.5 C 273.5,237.167 272.833,236.5 271.5,236.5C 273.857,232.955 276.857,230.455 280.5,229C 278.024,232.145 275.69,235.312 273.5,238.5 Z"/></g>
<g><path style="opacity:1" fill="#eece8a" d="M 240.5,238.5 C 240.737,237.209 240.404,236.209 239.5,235.5C 240.823,232.001 243.157,229.835 246.5,229C 244.637,232.34 242.637,235.507 240.5,238.5 Z"/></g>
<g><path style="opacity:0.631" fill="#f3daa5" d="M 271.5,236.5 C 270.92,238.749 269.587,240.415 267.5,241.5C 268.08,239.251 269.413,237.585 271.5,236.5 Z"/></g>
<g><path style="opacity:0.737" fill="#f1d497" d="M 112.5,233.5 C 109.769,237.234 106.436,240.234 102.5,242.5C 105.231,238.766 108.564,235.766 112.5,233.5 Z"/></g>
<g><path style="opacity:0.243" fill="#f4e3bb" d="M 380.5,240.5 C 379.833,241.167 379.167,241.833 378.5,242.5C 377.957,242.44 377.624,242.107 377.5,241.5C 378.325,240.614 379.325,240.281 380.5,240.5 Z"/></g>
<g><path style="opacity:0.388" fill="#f1dead" d="M 361.5,240.5 C 362.167,241.167 362.833,241.833 363.5,242.5C 363.44,243.043 363.107,243.376 362.5,243.5C 361.614,242.675 361.281,241.675 361.5,240.5 Z"/></g>
<g><path style="opacity:0.09" fill="#f7e8c7" d="M 141.5,243.5 C 143.265,242.539 145.265,242.205 147.5,242.5C 147.737,243.791 147.404,244.791 146.5,245.5C 145.448,243.744 143.781,243.077 141.5,243.5 Z"/></g>
<g><path style="opacity:0.671" fill="#f4dcab" d="M 102.5,242.5 C 102.573,244.027 101.906,245.027 100.5,245.5C 100.427,243.973 101.094,242.973 102.5,242.5 Z"/></g>
<g><path style="opacity:0.516" fill="#f1dba6" d="M 105.5,246.5 C 106.919,247.451 108.585,247.784 110.5,247.5C 108.307,248.797 105.973,248.797 103.5,247.5C 103.957,246.702 104.624,246.369 105.5,246.5 Z"/></g>
<g><path style="opacity:0.855" fill="#f0d395" d="M 146.5,246.5 C 146.5,247.833 147.167,248.5 148.5,248.5C 146.472,251.719 143.805,253.886 140.5,255C 142.399,252.012 144.399,249.179 146.5,246.5 Z"/></g>
<g><path style="opacity:0.993" fill="#e4b754" d="M 305.5,248.5 C 307.271,249.765 308.938,251.265 310.5,253C 306.47,264.363 298.97,272.529 288,277.5C 286.536,276.541 285.703,275.208 285.5,273.5C 288.486,262.185 295.153,253.851 305.5,248.5 Z M 303.5,256.5 C 297.567,259.585 293.734,264.252 292,270.5C 296.802,266.541 300.635,261.874 303.5,256.5 Z"/></g>
<g><path style="opacity:0.059" fill="#f7eacc" d="M 169.5,251.5 C 169.043,253.773 167.71,255.106 165.5,255.5C 166.402,253.659 167.736,252.326 169.5,251.5 Z"/></g>
<g><path style="opacity:0.384" fill="#f3e0b3" d="M 374.5,263.5 C 374.768,261.901 374.434,260.568 373.5,259.5C 373.461,258.244 373.961,257.244 375,256.5C 375.796,259.039 375.629,261.372 374.5,263.5 Z"/></g>
<g><path style="opacity:0.58" fill="#f1dcaa" d="M 69.5,259.5 C 72.3553,258.197 75.3553,258.197 78.5,259.5C 78.3764,260.107 78.0431,260.44 77.5,260.5C 75.0521,259.527 72.3854,259.194 69.5,259.5 Z"/></g>
<g><path style="opacity:0.363" fill="#f2dfb1" d="M 183.5,258.5 C 182.878,259.627 182.045,260.627 181,261.5C 180.481,259.511 181.314,258.511 183.5,258.5 Z"/></g>
<g><path style="opacity:0.537" fill="#f2d8a1" d="M 241.5,253.5 C 241.5,254.833 242.167,255.5 243.5,255.5C 241.539,257.963 239.372,260.297 237,262.5C 237.418,258.997 238.918,255.997 241.5,253.5 Z"/></g>
<g><path style="opacity:0.365" fill="#f5e5c0" d="M 386.5,257.5 C 386.821,259.048 387.821,259.715 389.5,259.5C 388.432,260.434 387.099,260.768 385.5,260.5C 385.263,259.209 385.596,258.209 386.5,257.5 Z"/></g>
<g><path style="opacity:0.057" fill="#faf1df" d="M 123.5,261.5 C 123.833,261.5 124.167,261.5 124.5,261.5C 124.167,262.5 123.5,263.167 122.5,263.5C 122.328,262.508 122.662,261.842 123.5,261.5 Z"/></g>
<g><path style="opacity:0.604" fill="#f3dba6" d="M 247.5,261.5 C 246.92,263.749 245.587,265.415 243.5,266.5C 244.08,264.251 245.413,262.585 247.5,261.5 Z"/></g>
<g><path style="opacity:0.327" fill="#f4e4be" d="M 419.5,270.5 C 419.5,270.167 419.5,269.833 419.5,269.5C 421.5,269.5 423.5,269.5 425.5,269.5C 424.5,270.167 423.5,270.833 422.5,271.5C 421.391,271.443 420.391,271.11 419.5,270.5 Z"/></g>
<g><path style="opacity:0.588" fill="#f2d7a0" d="M 276.5,269.5 C 275.167,272.833 272.833,275.167 269.5,276.5C 271.5,273.833 273.833,271.5 276.5,269.5 Z"/></g>
<g><path style="opacity:0.053" fill="#faf2e0" d="M 411.5,268.5 C 412.167,269.5 412.833,270.5 413.5,271.5C 413.217,272.289 412.717,272.956 412,273.5C 411.506,271.866 411.34,270.199 411.5,268.5 Z"/></g>
<g><path style="opacity:0.824" fill="#eecc86" d="M 179.5,279.5 C 179.631,278.761 179.464,278.094 179,277.5C 178.184,278.823 177.017,279.489 175.5,279.5C 177.528,276.281 180.195,274.114 183.5,273C 182.267,275.314 180.933,277.481 179.5,279.5 Z"/></g>
<g><path style="opacity:0.502" fill="#f3ddad" d="M 185.5,281.5 C 185.328,282.492 185.662,283.158 186.5,283.5C 185.878,284.627 185.045,285.627 184,286.5C 183.401,284.465 183.901,282.799 185.5,281.5 Z"/></g>
<g><path style="opacity:0.784" fill="#f0d395" d="M 193.5,284.5 C 192.85,286.435 192.517,288.435 192.5,290.5C 191.732,289.737 191.232,288.737 191,287.5C 189.549,289.464 187.716,290.797 185.5,291.5C 187.569,288.427 190.236,286.094 193.5,284.5 Z"/></g>
<g><path style="opacity:0.258" fill="#f6e8c7" d="M 206.5,290.5 C 284.167,291.167 361.833,291.833 439.5,292.5C 361.497,292.833 283.497,292.5 205.5,291.5C 205.624,290.893 205.957,290.56 206.5,290.5 Z"/></g>
<g><path style="opacity:0.373" fill="#f4e0b4" d="M 179.5,297.5 C 179.573,299.027 178.906,300.027 177.5,300.5C 177.427,298.973 178.094,297.973 179.5,297.5 Z"/></g>
</svg>
